HIERARCHY
ROOT Hips
{
	OFFSET -0.000008 104.274872 1.554316
	CHANNELS 6 Xposition Yposition Zposition Xrotation Yrotation Zrotation
	JOINT Spine
	{
		OFFSET -0.000005 10.181587 0.131521
		CHANNELS 6 Xposition Yposition Zposition Xrotation Yrotation Zrotation
		JOINT Spine1
		{
			OFFSET -0.000000 9.893967 -1.470711
			CHANNELS 3 Xrotation Yrotation Zrotation
			JOINT Spine2
			{
				OFFSET -0.000000 9.220772 -1.370643
				CHANNELS 3 Xrotation Yrotation Zrotation
				JOINT Neck
				{
					OFFSET 0.000001 16.740387 -2.049035
					CHANNELS 6 Xposition Yposition Zposition Xrotation Yrotation Zrotation
					JOINT Head
					{
						OFFSET 0.000000 9.617889 1.685008
						CHANNELS 6 Xposition Yposition Zposition Xrotation Yrotation Zrotation
						JOINT HeadTop_End
						{
							OFFSET 0.000002 22.037369 7.501095
							CHANNELS 6 Xposition Yposition Zposition Xrotation Yrotation Zrotation
							End Site
							{
								OFFSET 0.000002 23.106552 -2.828258
							}
						}
					}
				}
				JOINT RightShoulder
				{
					OFFSET -4.569969 11.014908 -2.160884
					CHANNELS 6 Xposition Yposition Zposition Xrotation Yrotation Zrotation
					JOINT RightArm
					{
						OFFSET -10.592846 -0.524811 -2.232097
						CHANNELS 3 Xrotation Yrotation Zrotation
						JOINT RightForeArm
						{
							OFFSET -27.841518 0.000000 -0.000004
							CHANNELS 3 Xrotation Yrotation Zrotation
							JOINT RightHand
							{
								OFFSET -28.328838 0.000000 0.000019
								CHANNELS 3 Xrotation Yrotation Zrotation
								JOINT RightHandThumb1
								{
									OFFSET -2.464806 -1.573990 2.681852
									CHANNELS 6 Xposition Yposition Zposition Xrotation Yrotation Zrotation
									JOINT RightHandThumb2
									{
										OFFSET -3.215187 -1.872772 1.924281
										CHANNELS 3 Xrotation Yrotation Zrotation
										JOINT RightHandThumb3
										{
											OFFSET -2.654839 -1.527985 1.512611
											CHANNELS 3 Xrotation Yrotation Zrotation
											JOINT RightHandThumb4
											{
												OFFSET -2.018822 -1.152008 1.108052
												CHANNELS 3 Xrotation Yrotation Zrotation
												End Site
												{
													OFFSET -1.888100 -1.145340 1.324313
												}
											}
										}
									}
								}
								JOINT RightHandIndex1
								{
									OFFSET -9.108284 -0.517868 2.259834
									CHANNELS 6 Xposition Yposition Zposition Xrotation Yrotation Zrotation
									JOINT RightHandIndex2
									{
										OFFSET -3.699997 0.000015 0.001215
										CHANNELS 3 Xrotation Yrotation Zrotation
										JOINT RightHandIndex3
										{
											OFFSET -2.850006 0.000000 -0.000521
											CHANNELS 3 Xrotation Yrotation Zrotation
											JOINT RightHandIndex4
											{
												OFFSET -2.772186 0.000000 -0.000020
												CHANNELS 3 Xrotation Yrotation Zrotation
												End Site
												{
													OFFSET -2.772186 0.000000 -0.000502
												}
											}
										}
									}
								}
								JOINT RightHandMiddle1
								{
									OFFSET -9.532501 -0.000046 -0.000025
									CHANNELS 6 Xposition Yposition Zposition Xrotation Yrotation Zrotation
									JOINT RightHandMiddle2
									{
										OFFSET -3.699997 0.000015 0.003713
										CHANNELS 3 Xrotation Yrotation Zrotation
										JOINT RightHandMiddle3
										{
											OFFSET -2.949997 0.000000 -0.002054
											CHANNELS 3 Xrotation Yrotation Zrotation
											JOINT RightHandMiddle4
											{
												OFFSET -2.946632 0.000015 -0.000155
												CHANNELS 3 Xrotation Yrotation Zrotation
												End Site
												{
													OFFSET -2.946625 0.000000 -0.001135
												}
											}
										}
									}
								}
								JOINT RightHandRing1
								{
									OFFSET -9.103592 -0.043076 -1.865134
									CHANNELS 6 Xposition Yposition Zposition Xrotation Yrotation Zrotation
									JOINT RightHandRing2
									{
										OFFSET -3.379272 0.000000 -0.001054
										CHANNELS 3 Xrotation Yrotation Zrotation
										JOINT RightHandRing3
										{
											OFFSET -2.889687 0.000000 0.000379
											CHANNELS 3 Xrotation Yrotation Zrotation
											JOINT RightHandRing4
											{
												OFFSET -2.638817 0.000000 0.000942
												CHANNELS 3 Xrotation Yrotation Zrotation
												End Site
												{
													OFFSET -2.638802 0.000000 0.005160
												}
											}
										}
									}
								}
								JOINT RightHandPinky1
								{
									OFFSET -8.076675 -0.486710 -3.806279
									CHANNELS 6 Xposition Yposition Zposition Xrotation Yrotation Zrotation
									JOINT RightHandPinky2
									{
										OFFSET -3.599998 -0.000031 -0.003747
										CHANNELS 3 Xrotation Yrotation Zrotation
										JOINT RightHandPinky3
										{
											OFFSET -2.099991 -0.000015 -0.005740
											CHANNELS 3 Xrotation Yrotation Zrotation
											JOINT RightHandPinky4
											{
												OFFSET -2.115776 -0.000015 -0.003680
												CHANNELS 3 Xrotation Yrotation Zrotation
												End Site
												{
													OFFSET -2.115784 -0.000015 -0.003507
												}
											}
										}
									}
								}
							}
						}
					}
				}
				JOINT LeftShoulder
				{
					OFFSET 4.570447 11.014709 -2.160855
					CHANNELS 6 Xposition Yposition Zposition Xrotation Yrotation Zrotation
					JOINT LeftArm
					{
						OFFSET 10.592369 -0.524597 -2.232120
						CHANNELS 3 Xrotation Yrotation Zrotation
						JOINT LeftForeArm
						{
							OFFSET 27.841522 -0.000031 0.000023
							CHANNELS 3 Xrotation Yrotation Zrotation
							JOINT LeftHand
							{
								OFFSET 28.328835 -0.000031 0.000018
								CHANNELS 3 Xrotation Yrotation Zrotation
								JOINT LeftHandThumb1
								{
									OFFSET 2.466141 -1.576187 2.681734
									CHANNELS 6 Xposition Yposition Zposition Xrotation Yrotation Zrotation
									JOINT LeftHandThumb2
									{
										OFFSET 3.217804 -1.872055 1.916487
										CHANNELS 3 Xrotation Yrotation Zrotation
										JOINT LeftHandThumb3
										{
											OFFSET 2.656013 -1.528809 1.514505
											CHANNELS 3 Xrotation Yrotation Zrotation
											JOINT LeftHandThumb4
											{
												OFFSET 2.020889 -1.154068 1.115134
												CHANNELS 3 Xrotation Yrotation Zrotation
												End Site
												{
													OFFSET 1.908852 -1.150833 1.300489
												}
											}
										}
									}
								}
								JOINT LeftHandIndex1
								{
									OFFSET 9.109306 -0.518036 2.259871
									CHANNELS 6 Xposition Yposition Zposition Xrotation Yrotation Zrotation
									JOINT LeftHandIndex2
									{
										OFFSET 3.699997 -0.000015 -0.000323
										CHANNELS 3 Xrotation Yrotation Zrotation
										JOINT LeftHandIndex3
										{
											OFFSET 2.850006 -0.000015 0.000350
											CHANNELS 3 Xrotation Yrotation Zrotation
											JOINT LeftHandIndex4
											{
												OFFSET 2.774864 0.000000 -0.000027
												CHANNELS 3 Xrotation Yrotation Zrotation
												End Site
												{
													OFFSET 2.774872 -0.000015 -0.000099
												}
											}
										}
									}
								}
								JOINT LeftHandMiddle1
								{
									OFFSET 9.533401 0.000031 0.000044
									CHANNELS 6 Xposition Yposition Zposition Xrotation Yrotation Zrotation
									JOINT LeftHandMiddle2
									{
										OFFSET 3.699997 -0.000015 -0.000231
										CHANNELS 3 Xrotation Yrotation Zrotation
										JOINT LeftHandMiddle3
										{
											OFFSET 2.950005 0.000000 -0.000060
											CHANNELS 3 Xrotation Yrotation Zrotation
											JOINT LeftHandMiddle4
											{
												OFFSET 2.952858 0.000000 0.000063
												CHANNELS 3 Xrotation Yrotation Zrotation
												End Site
												{
													OFFSET 2.952866 0.000000 0.000228
												}
											}
										}
									}
								}
								JOINT LeftHandRing1
								{
									OFFSET 9.104530 -0.043030 -1.865074
									CHANNELS 6 Xposition Yposition Zposition Xrotation Yrotation Zrotation
									JOINT LeftHandRing2
									{
										OFFSET 3.150002 -0.000015 0.000042
										CHANNELS 3 Xrotation Yrotation Zrotation
										JOINT LeftHandRing3
										{
											OFFSET 2.949997 0.000000 0.000037
											CHANNELS 3 Xrotation Yrotation Zrotation
											JOINT LeftHandRing4
											{
												OFFSET 2.644318 -0.000015 0.000059
												CHANNELS 3 Xrotation Yrotation Zrotation
												End Site
												{
													OFFSET 2.644318 0.000000 0.000121
												}
											}
										}
									}
								}
								JOINT LeftHandPinky1
								{
									OFFSET 8.077782 -0.486877 -3.806256
									CHANNELS 6 Xposition Yposition Zposition Xrotation Yrotation Zrotation
									JOINT LeftHandPinky2
									{
										OFFSET 3.599968 0.000031 0.014726
										CHANNELS 3 Xrotation Yrotation Zrotation
										JOINT LeftHandPinky3
										{
											OFFSET 2.099991 0.000015 0.007705
											CHANNELS 3 Xrotation Yrotation Zrotation
											JOINT LeftHandPinky4
											{
												OFFSET 2.125511 0.000015 0.007514
												CHANNELS 3 Xrotation Yrotation Zrotation
												End Site
												{
													OFFSET 2.125526 0.000015 0.006258
												}
											}
										}
									}
								}
							}
						}
					}
				}
			}
		}
	}
	JOINT RightUpLeg
	{
		OFFSET -8.207787 -6.751671 -1.599560
		CHANNELS 6 Xposition Yposition Zposition Xrotation Yrotation Zrotation
		JOINT RightLeg
		{
			OFFSET -0.000001 -44.370113 0.345939
			CHANNELS 3 Xrotation Yrotation Zrotation
			JOINT RightFoot
			{
				OFFSET 0.000001 -44.423676 -3.043536
				CHANNELS 3 Xrotation Yrotation Zrotation
				JOINT RightToeBase
				{
					OFFSET -0.000003 -8.728670 10.710561
					CHANNELS 3 Xrotation Yrotation Zrotation
					JOINT RightToe_End
					{
						OFFSET -0.000003 -0.000677 9.278120
						CHANNELS 3 Xrotation Yrotation Zrotation
						End Site
						{
							OFFSET -0.000003 -0.000677 9.278120
						}
					}
				}
			}
		}
	}
	JOINT LeftUpLeg
	{
		OFFSET 8.207791 -6.751701 -1.599555
		CHANNELS 6 Xposition Yposition Zposition Xrotation Yrotation Zrotation
		JOINT LeftLeg
		{
			OFFSET -0.000002 -44.370033 0.346958
			CHANNELS 3 Xrotation Yrotation Zrotation
			JOINT LeftFoot
			{
				OFFSET 0.000000 -44.423653 -3.044392
				CHANNELS 3 Xrotation Yrotation Zrotation
				JOINT LeftToeBase
				{
					OFFSET -0.000003 -8.728668 10.710560
					CHANNELS 3 Xrotation Yrotation Zrotation
					JOINT LeftToe_End
					{
						OFFSET -0.000003 -0.000677 9.278137
						CHANNELS 3 Xrotation Yrotation Zrotation
						End Site
						{
							OFFSET -0.000003 -0.000677 9.278137
						}
					}
				}
			}
		}
	}
}
MOTION
Frames: 4
Frame Time: 0.033333
14.703620 37.492195 32.616459 3.756356 -4.611824 -6.466497 -0.000007 10.181595 0.131525 11.982279 -0.478699 0.793434 23.958704 -0.847824 0.626319 23.958716 -0.847827 0.626317 0.000001 16.740389 -2.049039 -12.109931 0.254665 -3.913345 0.000002 9.617878 1.685007 -11.980498 -4.140498 1.139030 0.000002 22.037354 7.501090 0.000001 0.000001 0.000001 -4.569970 11.014917 -2.160886 1.431270 23.776136 5.035185 -18.977225 4.207854 39.033889 90.661814 9.983946 -98.014833 -3.858989 -5.696621 -44.197584 -2.464796 -1.573972 2.681859 18.943429 -3.436476 -12.305131 7.875787 -42.949486 4.341756 -14.948987 23.527206 10.708277 0.000006 -0.000009 0.000001 -9.108281 -0.517874 2.259836 0.867780 -2.831070 7.172801 6.854836 -5.732231 108.340126 1.324519 -2.704658 47.252693 -0.000000 -0.000002 -0.000001 -9.532521 -0.000047 -0.000025 1.541592 -10.125784 32.524603 4.331172 -5.886409 81.524790 0.432748 0.460107 52.449893 -0.000000 -0.000004 0.000012 -9.103595 -0.043061 -1.865131 3.914489 -15.631434 48.365321 5.801734 -5.410282 93.214426 -1.931596 4.576745 18.695116 0.000003 0.000001 0.000005 -8.076692 -0.486712 -3.806281 8.181073 -21.909763 63.113550 3.673110 -5.076713 78.939461 -0.255898 0.305684 44.355399 -0.000001 0.000002 -0.000002 4.570448 11.014708 -2.160862 2.430668 -24.387634 0.143391 -12.655489 -23.833445 -34.009407 102.676663 -51.137749 106.428506 -5.665985 6.969078 -17.989883 2.466132 -1.576197 2.681732 18.202683 6.692397 20.291795 1.687604 31.103008 -3.397020 -0.048959 6.762737 1.860326 0.000002 -0.000004 0.000004 9.109303 -0.518028 2.259869 0.721766 6.027972 -23.263612 1.177465 4.086760 -38.855467 0.017614 0.663567 -9.663008 -0.000004 -0.000003 -0.000002 9.533430 0.000025 0.000043 2.011042 10.728338 -41.660985 3.167169 5.621787 -67.620478 0.246134 1.704071 -16.177177 -0.000001 -0.000002 0.000002 9.104554 -0.043022 -1.865078 3.920650 13.216143 -52.250233 4.204472 5.232682 -75.359875 0.626382 1.955300 -22.926251 -0.000001 0.000001 0.000003 8.077804 -0.486861 -3.806268 6.403699 16.700871 -48.745045 2.509123 4.371194 -61.179835 0.645199 2.933249 -24.035746 0.000001 0.000002 0.000000 -8.207788 -6.751680 -1.599552 -110.892950 -8.752379 -0.094944 138.738573 -8.215906 -0.483404 -31.712732 0.550982 -0.181972 -0.239730 0.118874 3.512007 0.000000 0.000000 -0.000000 8.207790 -6.751709 -1.599553 -87.757617 17.459678 13.493519 151.524591 23.342738 1.730582 -44.660514 2.126223 -2.803444 -38.045096 7.077573 4.242731 -0.000001 0.000002 -0.000000 
14.845873 37.493805 32.690701 3.742670 -5.051511 -6.511760 -0.000005 10.181581 0.131520 11.960466 -0.476794 0.809173 23.914794 -0.856386 0.627430 23.914786 -0.856390 0.627430 0.000002 16.740389 -2.049043 -12.385286 0.332066 -3.963384 -0.000000 9.617874 1.685008 -12.193380 -3.688044 0.637194 0.000004 22.037354 7.501084 -0.000004 0.000002 -0.000000 -4.569965 11.014916 -2.160891 1.392876 23.746652 5.243738 -19.272588 3.948703 39.351507 91.361491 11.739291 -100.478537 -3.535576 -4.717493 -37.653863 -2.464807 -1.573969 2.681862 18.943417 -3.436487 -12.305133 2.220651 -33.990235 3.450579 -11.507203 18.206026 7.718270 0.000001 -0.000006 -0.000001 -9.108291 -0.517864 2.259837 0.867779 -2.831070 7.172805 6.596090 -5.809668 105.364684 0.316039 -1.433431 29.595551 0.000002 0.000003 -0.000006 -9.532500 -0.000036 -0.000021 1.418528 -9.930952 29.974302 4.172866 -5.859217 79.736550 -0.853508 1.873586 32.181454 0.000001 -0.000003 0.000009 -9.103606 -0.043069 -1.865134 3.914491 -15.631431 48.365314 4.569695 -5.333180 79.439492 -2.074418 5.065871 13.317627 0.000000 -0.000001 -0.000001 -8.076692 -0.486712 -3.806273 8.181069 -21.909758 63.113564 2.372474 -4.592264 63.505801 -0.853261 1.047840 35.228466 0.000002 -0.000001 -0.000011 4.570450 11.014706 -2.160856 2.406803 -24.386671 0.017140 -11.460329 -23.716538 -33.275138 102.198515 -51.416319 105.704629 -6.272783 4.703682 -18.280226 2.466130 -1.576197 2.681736 18.254773 6.809448 18.903725 1.102584 31.857140 -3.388703 0.612363 8.570503 2.310786 -0.000001 -0.000007 -0.000008 9.109314 -0.518045 2.259868 0.684366 5.938979 -22.205269 1.215009 4.132609 -39.507692 0.024820 0.704818 -10.120966 -0.000001 0.000005 0.000001 9.533408 0.000008 0.000037 1.971290 10.683865 -41.001202 3.275365 5.664722 -68.916855 0.261880 1.757218 -16.793248 -0.000001 0.000003 -0.000001 9.104540 -0.043049 -1.865080 3.873084 13.179884 -51.586967 4.317447 5.260717 -76.655930 0.648115 2.005891 -23.542641 0.000006 -0.000003 0.000003 8.077805 -0.486889 -3.806266 6.355741 16.663686 -48.078883 2.614252 4.421961 -62.473609 0.670220 2.983194 -24.652617 -0.000003 0.000005 0.000003 -8.207788 -6.751682 -1.599566 -110.921972 -8.893834 -0.041166 138.755594 -8.185292 -0.471618 -31.699369 0.696594 -0.643435 -0.470135 0.276623 3.714946 0.000000 -0.000001 -0.000000 8.207790 -6.751712 -1.599561 -87.544939 17.718701 13.558994 151.522747 23.422694 1.724565 -44.801062 2.037060 -2.668072 -38.646153 7.021936 4.842154 0.000000 0.000002 0.000000 
14.957475 37.484787 32.778263 3.742726 -5.413574 -6.556623 -0.000005 10.181593 0.131525 11.933567 -0.478118 0.829545 23.860938 -0.861298 0.652413 23.860918 -0.861301 0.652413 0.000001 16.740379 -2.049030 -12.707045 0.433881 -4.029086 -0.000002 9.617878 1.685012 -12.469371 -3.192677 0.221148 -0.000002 22.037354 7.501085 0.000000 0.000002 0.000002 -4.569968 11.014907 -2.160870 1.368717 23.785579 5.393060 -19.078175 3.477287 39.298781 93.107718 14.462323 -104.371998 -3.634849 -4.182874 -28.029548 -2.464793 -1.573982 2.681859 18.943422 -3.436490 -12.305142 -2.800124 -25.005078 3.608997 -8.442437 12.735212 5.137269 0.000000 -0.000001 0.000000 -9.108278 -0.517866 2.259838 0.867783 -2.831087 7.172811 5.855386 -5.954087 97.045554 -0.259161 0.083413 11.968078 0.000001 0.000002 -0.000001 -9.532509 -0.000042 -0.000022 1.194533 -9.515649 24.751188 3.829036 -5.782344 75.813754 -1.571212 3.644945 11.921376 0.000001 -0.000000 -0.000001 -9.103608 -0.043069 -1.865131 3.914489 -15.631417 48.365328 3.391965 -4.966327 65.674297 -2.170698 5.566222 7.937046 0.000001 0.000001 0.000007 -8.076684 -0.486721 -3.806273 8.181058 -21.909758 63.113537 1.248921 -3.780675 48.099828 -1.325492 1.875320 26.106528 0.000000 -0.000002 -0.000002 4.570447 11.014695 -2.160847 2.371853 -24.384320 -0.167247 -11.243838 -22.672635 -33.331876 102.045314 -50.885944 105.459125 -6.715739 2.803408 -16.322163 2.466120 -1.576205 2.681731 18.262577 6.826147 18.714995 1.022295 31.959763 -3.386354 0.701509 8.816916 2.370616 -0.000004 -0.000006 0.000008 9.109298 -0.518028 2.259872 0.679399 5.926831 -22.061255 1.220156 4.138812 -39.596471 0.025833 0.710425 -10.183264 0.000004 -0.000002 -0.000004 9.533432 0.000006 0.000042 1.965857 10.677728 -40.910320 3.290030 5.670311 -69.091591 0.264066 1.764424 -16.876668 0.000000 0.000001 -0.000002 9.104519 -0.043038 -1.865076 3.866569 13.174848 -51.495600 4.332717 5.264300 -76.830599 0.651109 2.012713 -23.626082 0.000002 -0.000000 -0.000005 8.077806 -0.486884 -3.806262 6.349175 16.658529 -47.987161 2.628490 4.428616 -62.647977 0.673658 2.989949 -24.736147 -0.000000 0.000003 0.000003 -8.207786 -6.751670 -1.599570 -110.981551 -9.028273 -0.049731 138.797749 -8.148652 -0.459877 -31.596793 0.795829 -0.966800 -0.706748 0.459213 3.889485 0.000000 -0.000001 -0.000000 8.207791 -6.751702 -1.599553 -87.429160 17.966352 13.667124 151.533867 23.618154 1.747965 -44.813373 2.025056 -2.683929 -39.115892 6.983156 5.106865 -0.000001 0.000000 0.000000 
15.034897 37.465225 32.870640 3.762800 -5.709986 -6.624757 -0.000005 10.181593 0.131518 11.907327 -0.469997 0.856151 23.808581 -0.843898 0.693215 23.808586 -0.843897 0.693216 0.000002 16.740398 -2.049028 -13.079152 0.533284 -4.085785 -0.000002 9.617887 1.685009 -12.808211 -2.706494 -0.057544 -0.000001 22.037354 7.501092 -0.000003 0.000001 0.000001 -4.569969 11.014895 -2.160879 1.353932 23.864162 5.499193 -18.603364 2.941071 38.937273 96.217107 17.615591 -109.297882 -4.043829 -4.222363 -16.471741 -2.464803 -1.573963 2.681858 18.943422 -3.436479 -12.305144 -2.800121 -25.005080 3.609030 -8.442439 12.735196 5.137250 0.000001 -0.000003 -0.000003 -9.108281 -0.517875 2.259837 0.844012 -2.626671 4.899897 4.674643 -5.962543 84.012344 -0.259166 0.083438 11.968058 -0.000001 -0.000001 0.000000 -9.532521 -0.000059 -0.000025 1.012206 -9.087807 19.605244 3.423867 -5.659254 71.098110 -1.571218 3.644959 11.921366 0.000000 -0.000000 0.000005 -9.103588 -0.043084 -1.865131 3.418882 -15.084650 40.834190 3.391946 -4.966324 65.674236 -2.170696 5.566211 7.937054 0.000000 0.000001 -0.000002 -8.076697 -0.486708 -3.806278 7.234291 -21.133481 52.221116 1.248906 -3.780668 48.099804 -1.325491 1.875318 26.106498 -0.000001 -0.000000 -0.000007 4.570448 11.014723 -2.160850 2.341354 -24.381393 -0.327762 -11.961915 -20.513546 -34.093910 102.474489 -49.830472 106.045312 -6.791433 1.443811 -12.660101 2.466137 -1.576195 2.681724 18.262584 6.826114 18.714997 1.022308 31.959763 -3.386357 0.701511 8.816915 2.370606 -0.000002 -0.000003 0.000009 9.109315 -0.518062 2.259873 0.679415 5.926806 -22.061255 1.220166 4.138810 -39.596471 0.025815 0.710435 -10.183273 -0.000003 0.000000 -0.000003 9.533414 0.000014 0.000041 1.965866 10.677716 -40.910340 3.290028 5.670312 -69.091591 0.264077 1.764414 -16.876668 -0.000001 -0.000002 0.000001 9.104537 -0.043049 -1.865077 3.866569 13.174827 -51.495607 4.332732 5.264301 -76.830619 0.651108 2.012715 -23.626108 0.000001 0.000001 0.000001 8.077806 -0.486887 -3.806261 6.349178 16.658510 -47.987150 2.628493 4.428631 -62.647964 0.673655 2.989933 -24.736143 0.000001 -0.000004 0.000001 -8.207788 -6.751671 -1.599573 -111.074954 -9.198369 -0.067058 138.856352 -8.161463 -0.451670 -31.441628 0.869440 -1.212298 -0.961637 0.633877 4.054130 -0.000000 -0.000000 -0.000000 8.207789 -6.751698 -1.599561 -87.398985 18.145045 13.798921 151.563646 23.883006 1.791026 -44.750641 2.084356 -2.830146 -39.429620 6.983261 5.094183 -0.000001 0.000001 0.000001 
